{"title":"A Midsummer Night's Dream (1999) [Kevin Kline] DVDrip 720px304pX","uid":9686459,"size":1199895905,"categoryP":"video","categoryS":"hd___movies","magnet":"?xt=urn:btih:681c83597118ebcea16fcbb95e9842f8d6c3fd38&amp;dn=A+Midsummer+Night%27s+Dream+%281999%29+%5BKevin+Kline%5D+DVDrip+720px304pX&amp;tr=udp%3A%2F%2Ftracker.openbittorrent.com%3A80&amp;tr=udp%3A%2F%2Fopen.demonii.com%3A1337&amp;tr=udp%3A%2F%2Ftracker.coppersurfer.tk%3A6969&amp;tr=udp%3A%2F%2Fexodus.desync.com%3A6969","seeders":15,"leechers":6,"uploader":null,"files":-1,"time":1393776959,"description":"A Midsummer Night's Dream (1999 - Dir. Michael Hoffman)\n\n&quot;It shall be called 'Bottom's Dream'...\n...for it hath no bottom.&quot;\n\nOn the eve of the 400th anniversary of the play's registry, this rather star-studded millennial adaptation of William Shakespeare's beloved sex comedy, heartwarming and heady in its screenplay rendition by Writer/Director Michael Hoffman, was unleashed upon unsuspecting moviegoers: &quot;The village of Monte Athena in Italy at the turn of the 19th century. Necklines are high. Parents are rigid. Marriage is seldom a matter of love. The good news: The bustle is in its decline, allowing for the meteoric rise of that newfangled creation, the bicycle.&quot;\n\n&quot;Lord, what fools these mortals be...&quot;\n\nKevin Kline~~~~~~~~~Nick Bottom\nMichelle Pfeiffer~~~~~~~~~Titania\nRupert Everett~~~~~~~~~Oberon\nStanley Tucci~~~~~~~~~Puck\nCalista Flockhart~~~~~~~~~Helena\nAnna Friel~~~~~~~~~Hermia\nChristian Bale~~~~~~~~~Demetrius\nDominic West~~~~~~~~~Lysander\nDavid Strathairn~~~~~~~~~Theseus\nSophie Marceau~~~~~~~~~Hippolyta\nSam Rockwell~~~~~~~~~Francis Flute\nBernard Hill~~~~~~~~~Egeus\n\n\nGeneral\nA Midsummer Night's Dream (1999) [Kevin Kline] DVDrip 720px304pXviD-448kAC3\nFormat                                   : AVI\nFormat/Info                              : Audio Video Interleave\nFile size                                : 1.07 GiB\nDuration                                 : 2h 0mn\nOverall bit rate                         : 1 269 Kbps\nWriting application                      : VirtualDubMod 1.5.10.2 (build 2540/release)\nWriting library                          : VirtualDubMod build 2540/release\n\nVideo\nID                                       : 0\nFormat                                   : MPEG-4 Visual\nFormat profile                           : Advanced Simple@L5\nFormat settings, BVOP                    : 2\nFormat settings, QPel                    : No\nFormat settings, GMC                     : No warppoints\nFormat settings, Matrix                  : Default (H.263)\nMuxing mode                              : Packed bitstream\nCodec ID                                 : XVID\nCodec ID/Hint                            : XviD\nDuration                                 : 2h 0mn\nBit rate                                 : 812 Kbps\nWidth                                    : 720 pixels\nHeight                                   : 304 pixels\nDisplay aspect ratio                     : 2.35:1\nFrame rate                               : 23.976 fps\nColor space                              : YUV\nChroma subsampling                       : 4:2:0\nBit depth                                : 8 bits\nScan type                                : Progressive\nCompression mode                         : Lossy\nBits/(Pixel*Frame)                       : 0.155\nStream size                              : 701 MiB (64%)\nWriting library                          : XviD 64\n\nAudio\nID                                       : 1\nFormat                                   : AC-3\nFormat/Info                              : Audio Coding 3\nMode extension                           : CM (complete main)\nFormat settings, Endianness              : Big\nCodec ID                                 : 2000\nDuration                                 : 2h 0mn\nBit rate mode                            : Constant\nBit rate                                 : 448 Kbps\nChannel(s)                               : 6 channels\nChannel positions                        : Front: L C R, Side: L R, LFE\nSampling rate                            : 48.0 KHz\nBit depth                                : 16 bits\nCompression mode                         : Lossy\nDelay relative to video                  : 20ms\nStream size                              : 387 MiB (35%)\nAlignment                                : Split accross interleaves\nInterleave, duration                     : 42 ms (1.00 video frame)\nInterleave, preload duration             : 500 ms\n","torrent":{"xt":"urn:btih:681c83597118ebcea16fcbb95e9842f8d6c3fd38","amp;dn":"A+Midsummer+Night%27s+Dream+%281999%29+%5BKevin+Kline%5D+DVDrip+720px304pX","amp;tr":["udp%3A%2F%2Ftracker.openbittorrent.com%3A80","udp%3A%2F%2Fopen.demonii.com%3A1337","udp%3A%2F%2Ftracker.coppersurfer.tk%3A6969","udp%3A%2F%2Fexodus.desync.com%3A6969"],"infoHash":"681c83597118ebcea16fcbb95e9842f8d6c3fd38","infoHashBuffer":{"type":"Buffer","data":[104,28,131,89,113,24,235,206,161,111,203,185,94,152,66,248,214,195,253,56]},"announce":[],"urlList":[]}}